<svg width="845" height="182" viewBox="0 0 845 182" fill="none" xmlns="http://www.w3.org/2000/svg">
<path d="M665.422 79.9791V70.4988C665.422 58.7985 661.858 50.1923 654.731 44.6784C647.738 39.0299 638.122 36.2061 625.885 36.2061C618.623 36.2061 612.101 37.1471 606.318 39.0299C600.536 40.7781 595.896 42.6609 592.4 44.6784C589.576 46.4266 587.558 48.2417 586.348 50.1246C585.272 51.8727 584.734 54.1588 584.734 56.9834V79.9791V91.0737V125.77C584.734 128.325 585.474 130.208 586.953 131.418C588.432 132.494 590.584 133.032 593.408 133.032C595.022 133.032 596.502 132.83 597.846 132.427C599.191 132.158 600.199 131.888 600.872 131.62V91.0737V79.9791V56.1763C603.831 54.4281 607.394 52.8815 611.563 51.5365C615.732 50.1923 620.506 49.5198 625.885 49.5198C633.013 49.5198 638.661 51.268 642.83 54.7643C647.133 58.2607 649.285 63.7746 649.285 71.3051V79.9791V91.0737V125.77C649.285 128.325 649.957 130.208 651.301 131.418C652.781 132.494 655 133.032 657.959 133.032C659.438 133.032 660.85 132.83 662.195 132.427C663.674 132.158 664.75 131.888 665.422 131.62V91.0737V79.9791Z" fill="#24262E"/>
<path d="M421.896 132.243C419.341 132.243 417.189 131.435 415.44 129.822C413.827 128.074 413.02 125.922 413.02 123.367V10H429.561V118.123H487.454C488.127 118.66 488.665 119.535 489.069 120.745C489.472 121.955 489.673 123.3 489.673 124.779C489.673 127.065 489.069 128.881 487.858 130.225C486.648 131.57 485.034 132.243 483.017 132.243H421.896Z" fill="#24262E"/>
<path d="M403.224 85.6448C403.224 95.596 401.341 104.27 397.576 111.667C393.81 119.063 388.498 124.778 381.64 128.812C374.782 132.847 366.712 134.864 357.434 134.864C348.154 134.864 340.019 132.847 333.025 128.812C326.167 124.778 320.855 119.063 317.089 111.667C313.324 104.27 311.441 95.596 311.441 85.6448C311.441 75.5589 313.324 66.8849 317.089 59.6229C320.989 52.2262 326.369 46.5107 333.227 42.4765C340.22 38.4423 348.289 36.4248 357.434 36.4248C366.578 36.4248 374.58 38.4423 381.438 42.4765C388.297 46.5107 393.608 52.2262 397.374 59.6229C401.274 66.8849 403.224 75.5589 403.224 85.6448ZM357.434 49.7386C348.423 49.7386 341.229 52.9656 335.85 59.4213C330.604 65.7415 327.982 74.4824 327.982 85.6448C327.982 96.941 330.538 105.75 335.647 112.07C340.893 118.39 348.154 121.551 357.434 121.551C366.578 121.551 373.706 118.39 378.816 112.07C384.06 105.615 386.682 96.8064 386.682 85.6448C386.682 74.4824 384.06 65.7415 378.816 59.4213C373.706 52.9656 366.578 49.7386 357.434 49.7386Z" fill="#24262E"/>
<path fill-rule="evenodd" clip-rule="evenodd" d="M261.907 129.418C254.107 129.418 246.912 127.938 240.323 124.98C233.733 121.888 228.422 116.911 224.388 110.053C220.353 103.195 218.336 94.1174 218.336 82.8203C218.336 72.6006 220.286 64.0605 224.185 57.2024C228.22 50.3435 233.733 45.1659 240.727 41.6696C247.72 38.1732 255.721 36.425 264.731 36.425C270.918 36.425 276.565 37.2322 281.676 38.8457C286.921 40.3254 291.291 42.2074 294.787 44.4943C296.805 45.8384 298.418 47.385 299.629 49.1332C300.974 50.7475 301.646 52.7642 301.646 55.1849V114.088V117.516V136.276C301.646 145.152 299.696 152.28 295.796 157.659C292.03 163.038 286.786 166.938 280.062 169.358C273.472 171.779 266.009 172.99 257.671 172.99C250.947 172.99 245.164 172.25 240.323 170.77C235.482 169.292 232.188 168.081 230.439 167.139C226.404 164.853 224.388 161.963 224.388 158.465C224.388 156.583 224.791 154.969 225.598 153.624C226.539 152.414 227.682 151.473 229.027 150.8C231.851 152.952 235.818 154.902 240.928 156.65C246.173 158.533 251.754 159.474 257.671 159.474C266.681 159.474 273.54 157.524 278.247 153.624C283.088 149.725 285.509 143.606 285.509 135.268V122.549C283.573 124.033 281.018 125.449 277.843 126.796C273.54 128.544 268.228 129.418 261.907 129.418ZM276.835 51.5539C280.331 52.6296 283.223 53.9076 285.509 55.3865V107.686C283.522 109.62 281.034 111.418 278.045 113.079C274.414 115.096 269.64 116.104 263.722 116.104C255.519 116.104 248.594 113.549 242.946 108.439C237.432 103.329 234.675 94.7222 234.675 82.6188C234.675 71.7257 237.432 63.5226 242.946 58.0088C248.459 52.4957 255.721 49.7388 264.731 49.7388C269.438 49.7388 273.472 50.3435 276.835 51.5539Z" fill="#24262E"/>
<path fill-rule="evenodd" clip-rule="evenodd" d="M534.315 132.544C526.34 132.544 518.985 131.025 512.249 127.985C505.511 124.808 500.081 119.697 495.957 112.652C491.832 105.607 489.77 96.283 489.77 84.679C489.77 74.181 491.763 65.4091 495.75 58.3641C499.875 51.3192 505.511 46.0012 512.661 42.4093C519.81 38.8175 527.99 37.022 537.201 37.022C543.526 37.022 549.3 37.8512 554.524 39.5088C559.886 41.0276 564.354 42.9619 567.929 45.3099C569.992 46.6916 571.641 48.2799 572.878 50.0762C574.253 51.7338 574.941 53.806 574.941 56.2919V120.319V132.544C574.941 132.544 562.232 135.713 559.68 129.85C558.579 127.32 558.442 125.489 558.442 125.489C556.463 127.013 553.852 128.467 550.606 129.85C546.207 131.646 540.776 132.544 534.315 132.544ZM558.442 56.4992V110.221C556.411 112.208 553.868 114.054 550.812 115.76C547.1 117.832 542.22 118.868 536.171 118.868C527.784 118.868 520.704 116.243 514.93 110.995C509.293 105.745 506.474 96.9049 506.474 84.4726C506.474 73.2832 509.293 64.8565 514.93 59.1933C520.566 53.5293 527.99 50.6973 537.201 50.6973C542.013 50.6973 546.138 51.3192 549.575 52.5622C553.15 53.6672 556.106 54.9796 558.442 56.4992Z" fill="#24262E"/>
<path fill-rule="evenodd" clip-rule="evenodd" d="M770.141 108.231L818.043 69.2069C819.949 67.7544 821.159 66.1787 821.68 64.4789C822.136 62.6655 821.616 60.5135 820.11 58.0223C816.016 51.228 810.865 46.1462 804.665 42.7755C798.505 39.2239 791.872 37.5762 784.767 37.8322C777.773 38.0203 770.812 40.1906 763.891 44.344C758.444 47.6124 753.974 51.6041 750.481 56.3209C746.916 60.9241 744.489 66.0018 743.199 71.5549C742.022 77.0391 742.006 82.9083 743.151 89.1609C744.337 95.2325 750.915 107.43 750.915 107.43C750.915 107.43 740.502 114.938 736.496 116.633C732.491 118.328 728.145 119.478 722.733 119.478C713.757 119.478 706.3 116.445 700.36 110.38C694.42 104.314 691.45 95.611 691.45 84.2704C691.45 73.0618 694.288 64.4252 699.964 58.3592C705.772 52.2931 713.362 49.2601 722.733 49.2601C728.277 49.2601 733.5 50.5 735.295 51.411C735.295 51.411 747 45.0905 741.303 41.4076C737.089 38.6839 730.92 36.2061 722.733 36.2061C713.626 36.2061 705.442 37.9202 698.182 41.3486C691.054 44.909 685.444 50.2492 681.353 57.37C677.261 64.4908 675.215 73.4579 675.215 84.2704C675.215 94.9516 677.326 103.852 681.551 110.973C685.775 118.226 691.45 123.633 698.578 127.192C705.838 130.885 713.757 132.731 722.337 132.731C730.52 132.731 736.496 130.891 741.303 128.637C746.51 126.489 754.921 121.035 758.125 117.834C761.652 121.821 765.683 125.544 769.788 127.985C777.062 132.102 784.832 133.84 793.091 133.197C801.47 132.486 810.034 129.51 818.773 124.268C823.764 121.272 827.905 118.017 831.198 114.501C834.602 110.917 836.949 107.505 838.239 104.264C839.577 100.841 839.601 98.0539 838.303 95.9019C837.486 94.5439 836.373 93.5932 834.963 93.0506C833.601 92.3263 832.055 91.943 830.325 91.899C829.147 95.0729 827.104 98.6093 824.204 102.51C821.305 106.41 817.467 109.79 812.701 112.649C803.729 118.028 795.238 119.962 787.219 118.451C781.035 117.138 775.292 113.699 770.141 108.231ZM805.738 63.4057C801.533 57.4509 796.31 53.6488 790.062 52.0002C783.741 50.2388 777.181 51.4008 770.371 55.4862C763.338 59.7077 759.028 65.7617 757.442 73.6484C755.944 81.1493 757.604 89.1224 762.931 98.2271L805.738 63.4057Z" fill="#24262E"/>
<path fill-rule="evenodd" clip-rule="evenodd" d="M176.407 32.0227C176.897 22.876 173.267 13.6128 165.761 7.22475C153.001 -3.63491 133.871 -2.07457 123.032 10.7097C118.766 15.7402 116.421 21.7589 115.922 27.8712C115.161 34.302 115.903 40.7343 116.745 48.0242C117.955 58.5152 119.371 70.7803 116.806 87.3674C114.685 101.079 108.805 112.5 103.483 122.839C99.7335 130.125 96.2609 136.872 94.5743 143.504C91.5216 154.551 94.8727 166.866 104.166 174.776C116.926 185.634 136.056 184.075 146.895 171.291C150.904 166.562 153.217 160.96 153.895 155.229C155.206 147.058 154.296 138.209 153.339 128.9C152.168 117.504 150.925 105.419 153.597 93.0431C157.177 76.4539 162.667 66.2571 167.377 57.5057C171.366 50.0949 174.797 43.7208 176.039 35.3808C176.216 34.3145 176.335 33.2416 176.399 32.1672C176.402 32.12 176.405 32.0728 176.408 32.0249L176.407 32.0227Z" fill="url(#paint0_linear_5029_13236)"/>
<path fill-rule="evenodd" clip-rule="evenodd" d="M159.857 57.1908C168.001 53.0627 174.188 45.3196 175.955 35.6593C178.959 19.2374 168.055 3.49472 151.601 0.497057C145.125 -0.683572 138.754 0.286885 133.224 2.89961C127.294 5.44227 122.11 9.28356 116.237 13.6366C107.783 19.9018 97.8976 27.2268 82.2925 33.2656C69.3933 38.2573 56.5929 38.8642 45.0055 39.4128C36.8338 39.8007 29.2655 40.1591 22.6929 42.0078C11.6368 44.8735 2.68431 53.8923 0.497708 65.8453C-2.50622 82.2672 8.39704 98.0099 24.8513 101.008C30.9406 102.117 36.9369 101.326 42.2266 99.0563C49.9333 96.1213 57.1176 90.935 64.6763 85.478C73.9313 78.7961 83.7472 71.7101 95.7686 67.8585C111.883 62.6958 123.431 62.361 133.341 62.0748C141.737 61.8307 148.959 61.622 156.788 58.5396C157.789 58.1642 158.768 57.7365 159.72 57.2601C159.765 57.238 159.811 57.2166 159.856 57.1945L159.857 57.1908Z" fill="url(#paint1_linear_5029_13236)"/>
<path fill-rule="evenodd" clip-rule="evenodd" d="M107.631 176.94C115.309 181.94 125.152 183.424 134.447 180.104C150.248 174.461 158.483 157.078 152.839 141.278C150.622 135.07 146.592 130.03 141.558 126.54C136.363 122.655 130.412 120.079 123.666 117.159C113.971 112.963 102.637 108.057 89.5543 97.5354C78.7397 88.8382 71.791 78.0235 65.5012 68.2333C61.0715 61.339 56.9682 54.9524 52.0712 50.1734C44.0319 41.9951 31.6808 38.7411 20.1698 42.8516C4.36941 48.4944 -3.86495 65.8777 1.77811 81.6778C3.8649 87.5211 7.55735 92.3289 12.1816 95.7834C18.6031 101.008 26.7249 104.645 35.2705 108.471C45.7284 113.153 56.8201 118.119 66.2021 126.627C78.7787 138.03 84.8614 147.894 90.0819 156.359C94.4918 163.51 98.2863 169.663 104.861 174.904C105.724 175.617 106.626 176.282 107.558 176.893C107.582 176.909 107.606 176.925 107.629 176.94H107.631Z" fill="url(#paint2_linear_5029_13236)"/>
<defs>
<linearGradient id="paint0_linear_5029_13236" x1="112.297" y1="23.8273" x2="98.5696" y2="185.54" gradientUnits="userSpaceOnUse">
<stop stop-color="#222D56"/>
<stop offset="1" stop-color="#4163DD"/>
</linearGradient>
<linearGradient id="paint1_linear_5029_13236" x1="177.324" y1="36.3584" x2="-12.6794" y2="74.3317" gradientUnits="userSpaceOnUse">
<stop stop-color="#3F56B6"/>
<stop offset="1" stop-color="#344384"/>
</linearGradient>
<linearGradient id="paint2_linear_5029_13236" x1="147.307" y1="171.26" x2="7.31457" y2="51.6911" gradientUnits="userSpaceOnUse">
<stop stop-color="#4B66D6"/>
<stop offset="1" stop-color="#3B4EA1"/>
</linearGradient>
</defs>
</svg>
